# xmcd
#
# Track frame offsets: 
#        150
#        18032
#        41998
#        65701
#        88890
#        107816
#        131108
#        153190
#        179471
#        200774
#        223529
#        250464
#        275351
#
# Disc length: 3989 seconds
#
# Revision: 0
# Processed by: cddbd v1.5.2PL0 Copyright (c) Steve Scherf et al.
# Submitted via: ExactAudioCopyFreeDBPlugin 1.0
#
DISCID=c50f930d
DTITLE=niha - The sounds fade away at morning
DYEAR=2011
DGENRE=Ambient
TTITLE0=F.O.A.F
TTITLE1=Red Eye
TTITLE2=Imaginary Friend
TTITLE3=Dropping Words
TTITLE4=Clear Sky
TTITLE5=Sugar
TTITLE6=Lucy
TTITLE7=R
TTITLE8=Criminally
TTITLE9=Quiet Room
TTITLE10=Libra
TTITLE11=Sixth Color
TTITLE12=Finder
EXTD=
EXTT0=
EXTT1=
EXTT2=
EXTT3=
EXTT4=
EXTT5=
EXTT6=
EXTT7=
EXTT8=
EXTT9=
EXTT10=
EXTT11=
EXTT12=
PLAYORDER=
